<mxfile host="app.diagrams.net" modified="2021-08-20T06:14:51.841Z" agent="5.0 (Windows NT 10.0; Win64; x64) AppleWebKit/537.36 (KHTML, like Gecko) Chrome/92.0.4515.159 Safari/537.36" etag="KobTl3DJzlDLQT8MT_cB" version="14.5.10" type="github">
  <diagram id="KxFpNpfI4LHRBTRSWj1B" name="Page-1">
    <mxGraphModel dx="1038" dy="547" grid="1" gridSize="10" guides="1" tooltips="1" connect="1" arrows="1" fold="1" page="1" pageScale="1" pageWidth="827" pageHeight="1169" math="0" shadow="0">
      <root>
        <mxCell id="0" />
        <mxCell id="1" parent="0" />
        <mxCell id="gjGeg2ki3XYD1GOhLgcD-8" style="edgeStyle=orthogonalEdgeStyle;rounded=0;orthogonalLoop=1;jettySize=auto;html=1;exitX=0.5;exitY=1;exitDx=0;exitDy=0;entryX=0.5;entryY=0;entryDx=0;entryDy=0;" edge="1" parent="1" source="gjGeg2ki3XYD1GOhLgcD-1" target="gjGeg2ki3XYD1GOhLgcD-2">
          <mxGeometry relative="1" as="geometry" />
        </mxCell>
        <mxCell id="gjGeg2ki3XYD1GOhLgcD-1" value="登录界面" style="rounded=0;whiteSpace=wrap;html=1;" vertex="1" parent="1">
          <mxGeometry x="300" y="40" width="120" height="40" as="geometry" />
        </mxCell>
        <mxCell id="gjGeg2ki3XYD1GOhLgcD-9" style="edgeStyle=orthogonalEdgeStyle;rounded=0;orthogonalLoop=1;jettySize=auto;html=1;exitX=0.5;exitY=1;exitDx=0;exitDy=0;entryX=0.5;entryY=0;entryDx=0;entryDy=0;" edge="1" parent="1" source="gjGeg2ki3XYD1GOhLgcD-2" target="gjGeg2ki3XYD1GOhLgcD-3">
          <mxGeometry relative="1" as="geometry" />
        </mxCell>
        <mxCell id="gjGeg2ki3XYD1GOhLgcD-10" style="edgeStyle=orthogonalEdgeStyle;rounded=0;orthogonalLoop=1;jettySize=auto;html=1;exitX=0.5;exitY=1;exitDx=0;exitDy=0;entryX=0.5;entryY=0;entryDx=0;entryDy=0;" edge="1" parent="1" source="gjGeg2ki3XYD1GOhLgcD-2" target="gjGeg2ki3XYD1GOhLgcD-5">
          <mxGeometry relative="1" as="geometry" />
        </mxCell>
        <mxCell id="gjGeg2ki3XYD1GOhLgcD-11" style="edgeStyle=orthogonalEdgeStyle;rounded=0;orthogonalLoop=1;jettySize=auto;html=1;exitX=0.5;exitY=1;exitDx=0;exitDy=0;entryX=0.577;entryY=-0.025;entryDx=0;entryDy=0;entryPerimeter=0;" edge="1" parent="1" source="gjGeg2ki3XYD1GOhLgcD-2" target="gjGeg2ki3XYD1GOhLgcD-6">
          <mxGeometry relative="1" as="geometry" />
        </mxCell>
        <mxCell id="gjGeg2ki3XYD1GOhLgcD-12" style="edgeStyle=orthogonalEdgeStyle;rounded=0;orthogonalLoop=1;jettySize=auto;html=1;exitX=0.5;exitY=1;exitDx=0;exitDy=0;entryX=0.5;entryY=0;entryDx=0;entryDy=0;" edge="1" parent="1" source="gjGeg2ki3XYD1GOhLgcD-2" target="gjGeg2ki3XYD1GOhLgcD-7">
          <mxGeometry relative="1" as="geometry" />
        </mxCell>
        <mxCell id="gjGeg2ki3XYD1GOhLgcD-2" value="前台主界面" style="rounded=0;whiteSpace=wrap;html=1;" vertex="1" parent="1">
          <mxGeometry x="300" y="120" width="120" height="40" as="geometry" />
        </mxCell>
        <mxCell id="gjGeg2ki3XYD1GOhLgcD-3" value="我的网盘管理页面" style="rounded=0;whiteSpace=wrap;html=1;" vertex="1" parent="1">
          <mxGeometry x="60" y="200" width="120" height="40" as="geometry" />
        </mxCell>
        <mxCell id="gjGeg2ki3XYD1GOhLgcD-5" value="分享页面" style="rounded=0;whiteSpace=wrap;html=1;" vertex="1" parent="1">
          <mxGeometry x="220" y="200" width="120" height="40" as="geometry" />
        </mxCell>
        <mxCell id="gjGeg2ki3XYD1GOhLgcD-6" value="个人信息页面" style="rounded=0;whiteSpace=wrap;html=1;" vertex="1" parent="1">
          <mxGeometry x="380" y="200" width="120" height="40" as="geometry" />
        </mxCell>
        <mxCell id="gjGeg2ki3XYD1GOhLgcD-7" value="系统公告页面" style="rounded=0;whiteSpace=wrap;html=1;" vertex="1" parent="1">
          <mxGeometry x="550" y="200" width="120" height="40" as="geometry" />
        </mxCell>
      </root>
    </mxGraphModel>
  </diagram>
</mxfile>
